<mxfile host="app.diagrams.net" modified="2021-04-25T01:54:31.325Z" agent="5.0 (Windows NT 10.0; Win64; x64) AppleWebKit/537.36 (KHTML, like Gecko) Chrome/90.0.4430.85 Safari/537.36" etag="LmTJFuu3t6mgi1J39M92" version="14.6.6" type="github">
  <diagram id="EeIgfOOD4kBfmX4mUKTw" name="Page-1">
    <mxGraphModel dx="1038" dy="548" grid="1" gridSize="10" guides="1" tooltips="1" connect="1" arrows="1" fold="1" page="1" pageScale="1" pageWidth="827" pageHeight="1169" math="0" shadow="0">
      <root>
        <mxCell id="0" />
        <mxCell id="1" parent="0" />
        <mxCell id="m3o6kBRXyQpKsIEe39eC-1" value="Database" style="shape=umlActor;verticalLabelPosition=bottom;verticalAlign=top;html=1;outlineConnect=0;" vertex="1" parent="1">
          <mxGeometry x="985" y="328" width="30" height="60" as="geometry" />
        </mxCell>
        <mxCell id="m3o6kBRXyQpKsIEe39eC-2" style="edgeStyle=orthogonalEdgeStyle;rounded=0;orthogonalLoop=1;jettySize=auto;html=1;exitX=0.359;exitY=0.985;exitDx=0;exitDy=0;entryX=1.003;entryY=0.394;entryDx=0;entryDy=0;entryPerimeter=0;startArrow=none;startFill=0;endArrow=none;endFill=0;exitPerimeter=0;" edge="1" parent="1" source="m3o6kBRXyQpKsIEe39eC-34" target="m3o6kBRXyQpKsIEe39eC-25">
          <mxGeometry relative="1" as="geometry">
            <Array as="points">
              <mxPoint x="490" y="315" />
              <mxPoint x="490" y="484" />
            </Array>
          </mxGeometry>
        </mxCell>
        <mxCell id="m3o6kBRXyQpKsIEe39eC-3" style="edgeStyle=orthogonalEdgeStyle;rounded=0;orthogonalLoop=1;jettySize=auto;html=1;exitX=0.5;exitY=1;exitDx=0;exitDy=0;exitPerimeter=0;" edge="1" parent="1">
          <mxGeometry relative="1" as="geometry">
            <mxPoint x="135" y="184.9999999999999" as="sourcePoint" />
            <mxPoint x="135" y="184.9999999999999" as="targetPoint" />
          </mxGeometry>
        </mxCell>
        <mxCell id="m3o6kBRXyQpKsIEe39eC-4" style="edgeStyle=orthogonalEdgeStyle;rounded=0;orthogonalLoop=1;jettySize=auto;html=1;exitX=0.5;exitY=1;exitDx=0;exitDy=0;exitPerimeter=0;" edge="1" parent="1">
          <mxGeometry relative="1" as="geometry">
            <mxPoint x="135" y="184.9999999999999" as="sourcePoint" />
            <mxPoint x="135" y="184.9999999999999" as="targetPoint" />
          </mxGeometry>
        </mxCell>
        <mxCell id="m3o6kBRXyQpKsIEe39eC-5" style="edgeStyle=orthogonalEdgeStyle;rounded=0;orthogonalLoop=1;jettySize=auto;html=1;exitX=0;exitY=0.5;exitDx=0;exitDy=0;startArrow=none;startFill=0;endArrow=none;endFill=0;" edge="1" parent="1" source="m3o6kBRXyQpKsIEe39eC-25">
          <mxGeometry relative="1" as="geometry">
            <mxPoint x="140" y="380" as="targetPoint" />
            <Array as="points">
              <mxPoint x="170" y="490" />
              <mxPoint x="170" y="380" />
              <mxPoint x="140" y="380" />
            </Array>
          </mxGeometry>
        </mxCell>
        <object label="Manager" id="m3o6kBRXyQpKsIEe39eC-6">
          <mxCell style="shape=umlActor;verticalLabelPosition=bottom;verticalAlign=top;html=1;outlineConnect=0;" vertex="1" parent="1">
            <mxGeometry x="100" y="328" width="30" height="60" as="geometry" />
          </mxCell>
        </object>
        <mxCell id="m3o6kBRXyQpKsIEe39eC-7" style="edgeStyle=orthogonalEdgeStyle;rounded=0;orthogonalLoop=1;jettySize=auto;html=1;exitX=1;exitY=0.5;exitDx=0;exitDy=0;entryX=0.25;entryY=1;entryDx=0;entryDy=0;startArrow=none;startFill=0;endArrow=none;endFill=0;" edge="1" parent="1" source="m3o6kBRXyQpKsIEe39eC-15" target="m3o6kBRXyQpKsIEe39eC-34">
          <mxGeometry relative="1" as="geometry" />
        </mxCell>
        <mxCell id="m3o6kBRXyQpKsIEe39eC-8" value="conveys-requests ▶" style="text;html=1;strokeColor=none;fillColor=none;align=center;verticalAlign=middle;whiteSpace=wrap;rounded=0;rotation=0;" vertex="1" parent="1">
          <mxGeometry x="501" y="394" width="130" height="20" as="geometry" />
        </mxCell>
        <mxCell id="m3o6kBRXyQpKsIEe39eC-9" value="◀ prepares" style="text;html=1;strokeColor=none;fillColor=none;align=center;verticalAlign=middle;whiteSpace=wrap;rounded=0;" vertex="1" parent="1">
          <mxGeometry x="435" y="507" width="66" height="20" as="geometry" />
        </mxCell>
        <mxCell id="m3o6kBRXyQpKsIEe39eC-10" value="receives ▶" style="text;html=1;strokeColor=none;fillColor=none;align=center;verticalAlign=middle;whiteSpace=wrap;rounded=0;" vertex="1" parent="1">
          <mxGeometry x="359" y="352" width="66" height="20" as="geometry" />
        </mxCell>
        <mxCell id="m3o6kBRXyQpKsIEe39eC-11" value="conveys-requests ▶" style="text;html=1;strokeColor=none;fillColor=none;align=center;verticalAlign=middle;whiteSpace=wrap;rounded=0;rotation=0;" vertex="1" parent="1">
          <mxGeometry x="594" y="340" width="130" height="20" as="geometry" />
        </mxCell>
        <mxCell id="m3o6kBRXyQpKsIEe39eC-12" value="◀ posts" style="text;html=1;strokeColor=none;fillColor=none;align=center;verticalAlign=middle;whiteSpace=wrap;rounded=0;" vertex="1" parent="1">
          <mxGeometry x="365" y="462" width="66" height="20" as="geometry" />
        </mxCell>
        <mxCell id="m3o6kBRXyQpKsIEe39eC-13" value="" style="group" vertex="1" connectable="0" parent="1">
          <mxGeometry x="200" y="300" width="150" height="110" as="geometry" />
        </mxCell>
        <mxCell id="m3o6kBRXyQpKsIEe39eC-14" value="" style="group" vertex="1" connectable="0" parent="m3o6kBRXyQpKsIEe39eC-13">
          <mxGeometry x="10" y="20" width="140" height="90" as="geometry" />
        </mxCell>
        <mxCell id="m3o6kBRXyQpKsIEe39eC-15" value="&amp;lt;&amp;lt;boundary&amp;gt;&amp;gt;&lt;br&gt;Search Request" style="rounded=0;whiteSpace=wrap;html=1;" vertex="1" parent="m3o6kBRXyQpKsIEe39eC-14">
          <mxGeometry width="140" height="60" as="geometry" />
        </mxCell>
        <mxCell id="m3o6kBRXyQpKsIEe39eC-16" value="&amp;nbsp;searchParams" style="rounded=0;whiteSpace=wrap;html=1;align=left;" vertex="1" parent="m3o6kBRXyQpKsIEe39eC-14">
          <mxGeometry y="60" width="140" height="30" as="geometry" />
        </mxCell>
        <mxCell id="m3o6kBRXyQpKsIEe39eC-17" value="" style="group" vertex="1" connectable="0" parent="m3o6kBRXyQpKsIEe39eC-13">
          <mxGeometry width="30" height="40" as="geometry" />
        </mxCell>
        <mxCell id="m3o6kBRXyQpKsIEe39eC-18" value="" style="whiteSpace=wrap;html=1;shape=mxgraph.basic.document" vertex="1" parent="m3o6kBRXyQpKsIEe39eC-17">
          <mxGeometry width="30" height="40" as="geometry" />
        </mxCell>
        <mxCell id="m3o6kBRXyQpKsIEe39eC-19" value="" style="endArrow=none;html=1;" edge="1" parent="m3o6kBRXyQpKsIEe39eC-17">
          <mxGeometry width="50" height="50" relative="1" as="geometry">
            <mxPoint x="5" y="9" as="sourcePoint" />
            <mxPoint x="25" y="9" as="targetPoint" />
          </mxGeometry>
        </mxCell>
        <mxCell id="m3o6kBRXyQpKsIEe39eC-20" value="" style="endArrow=none;html=1;" edge="1" parent="m3o6kBRXyQpKsIEe39eC-17">
          <mxGeometry width="50" height="50" relative="1" as="geometry">
            <mxPoint x="5" y="15" as="sourcePoint" />
            <mxPoint x="25" y="15" as="targetPoint" />
          </mxGeometry>
        </mxCell>
        <mxCell id="m3o6kBRXyQpKsIEe39eC-21" value="" style="endArrow=none;html=1;" edge="1" parent="m3o6kBRXyQpKsIEe39eC-17">
          <mxGeometry width="50" height="50" relative="1" as="geometry">
            <mxPoint x="5" y="21" as="sourcePoint" />
            <mxPoint x="25" y="21" as="targetPoint" />
          </mxGeometry>
        </mxCell>
        <mxCell id="m3o6kBRXyQpKsIEe39eC-22" value="" style="endArrow=none;html=1;" edge="1" parent="m3o6kBRXyQpKsIEe39eC-17">
          <mxGeometry width="50" height="50" relative="1" as="geometry">
            <mxPoint x="5" y="27" as="sourcePoint" />
            <mxPoint x="25" y="27" as="targetPoint" />
          </mxGeometry>
        </mxCell>
        <mxCell id="m3o6kBRXyQpKsIEe39eC-23" value="" style="endArrow=none;html=1;" edge="1" parent="m3o6kBRXyQpKsIEe39eC-17">
          <mxGeometry width="50" height="50" relative="1" as="geometry">
            <mxPoint x="5" y="33" as="sourcePoint" />
            <mxPoint x="25" y="33" as="targetPoint" />
          </mxGeometry>
        </mxCell>
        <mxCell id="m3o6kBRXyQpKsIEe39eC-24" value="" style="group" vertex="1" connectable="0" parent="1">
          <mxGeometry x="200" y="440" width="150" height="80" as="geometry" />
        </mxCell>
        <mxCell id="m3o6kBRXyQpKsIEe39eC-25" value="&amp;lt;&amp;lt;boundary&amp;gt;&amp;gt;&lt;br&gt;Interface Page" style="rounded=0;whiteSpace=wrap;html=1;" vertex="1" parent="m3o6kBRXyQpKsIEe39eC-24">
          <mxGeometry x="10" y="20" width="140" height="60" as="geometry" />
        </mxCell>
        <mxCell id="m3o6kBRXyQpKsIEe39eC-26" value="" style="group" vertex="1" connectable="0" parent="m3o6kBRXyQpKsIEe39eC-24">
          <mxGeometry width="30" height="40" as="geometry" />
        </mxCell>
        <mxCell id="m3o6kBRXyQpKsIEe39eC-27" value="" style="whiteSpace=wrap;html=1;shape=mxgraph.basic.document" vertex="1" parent="m3o6kBRXyQpKsIEe39eC-26">
          <mxGeometry width="30" height="40" as="geometry" />
        </mxCell>
        <mxCell id="m3o6kBRXyQpKsIEe39eC-28" value="" style="endArrow=none;html=1;" edge="1" parent="m3o6kBRXyQpKsIEe39eC-26">
          <mxGeometry width="50" height="50" relative="1" as="geometry">
            <mxPoint x="5" y="9" as="sourcePoint" />
            <mxPoint x="25" y="9" as="targetPoint" />
          </mxGeometry>
        </mxCell>
        <mxCell id="m3o6kBRXyQpKsIEe39eC-29" value="" style="endArrow=none;html=1;" edge="1" parent="m3o6kBRXyQpKsIEe39eC-26">
          <mxGeometry width="50" height="50" relative="1" as="geometry">
            <mxPoint x="5" y="15" as="sourcePoint" />
            <mxPoint x="25" y="15" as="targetPoint" />
          </mxGeometry>
        </mxCell>
        <mxCell id="m3o6kBRXyQpKsIEe39eC-30" value="" style="endArrow=none;html=1;" edge="1" parent="m3o6kBRXyQpKsIEe39eC-26">
          <mxGeometry width="50" height="50" relative="1" as="geometry">
            <mxPoint x="5" y="21" as="sourcePoint" />
            <mxPoint x="25" y="21" as="targetPoint" />
          </mxGeometry>
        </mxCell>
        <mxCell id="m3o6kBRXyQpKsIEe39eC-31" value="" style="endArrow=none;html=1;" edge="1" parent="m3o6kBRXyQpKsIEe39eC-26">
          <mxGeometry width="50" height="50" relative="1" as="geometry">
            <mxPoint x="5" y="27" as="sourcePoint" />
            <mxPoint x="25" y="27" as="targetPoint" />
          </mxGeometry>
        </mxCell>
        <mxCell id="m3o6kBRXyQpKsIEe39eC-32" value="" style="endArrow=none;html=1;" edge="1" parent="m3o6kBRXyQpKsIEe39eC-26">
          <mxGeometry width="50" height="50" relative="1" as="geometry">
            <mxPoint x="5" y="33" as="sourcePoint" />
            <mxPoint x="25" y="33" as="targetPoint" />
          </mxGeometry>
        </mxCell>
        <mxCell id="m3o6kBRXyQpKsIEe39eC-33" value="" style="group" vertex="1" connectable="0" parent="1">
          <mxGeometry x="413" y="243" width="155" height="73" as="geometry" />
        </mxCell>
        <mxCell id="m3o6kBRXyQpKsIEe39eC-34" value="&amp;lt;&amp;lt;control&amp;gt;&amp;gt;&lt;br&gt;Controller" style="rounded=0;whiteSpace=wrap;html=1;" vertex="1" parent="m3o6kBRXyQpKsIEe39eC-33">
          <mxGeometry x="15" y="13" width="140" height="60" as="geometry" />
        </mxCell>
        <mxCell id="m3o6kBRXyQpKsIEe39eC-35" value="" style="verticalLabelPosition=bottom;verticalAlign=top;html=1;shape=mxgraph.basic.smiley" vertex="1" parent="m3o6kBRXyQpKsIEe39eC-33">
          <mxGeometry width="30" height="30" as="geometry" />
        </mxCell>
        <mxCell id="m3o6kBRXyQpKsIEe39eC-36" style="edgeStyle=orthogonalEdgeStyle;rounded=0;orthogonalLoop=1;jettySize=auto;html=1;exitX=1;exitY=0.5;exitDx=0;exitDy=0;entryX=0;entryY=0.5;entryDx=0;entryDy=0;endArrow=none;endFill=0;" edge="1" parent="1" source="m3o6kBRXyQpKsIEe39eC-34" target="m3o6kBRXyQpKsIEe39eC-45">
          <mxGeometry relative="1" as="geometry">
            <Array as="points">
              <mxPoint x="590" y="290" />
              <mxPoint x="590" y="362" />
            </Array>
          </mxGeometry>
        </mxCell>
        <mxCell id="m3o6kBRXyQpKsIEe39eC-37" style="edgeStyle=orthogonalEdgeStyle;rounded=0;orthogonalLoop=1;jettySize=auto;html=1;exitX=0.75;exitY=1;exitDx=0;exitDy=0;entryX=0.376;entryY=0;entryDx=0;entryDy=0;entryPerimeter=0;endArrow=none;endFill=0;" edge="1" parent="1" source="m3o6kBRXyQpKsIEe39eC-34" target="m3o6kBRXyQpKsIEe39eC-41">
          <mxGeometry relative="1" as="geometry" />
        </mxCell>
        <mxCell id="m3o6kBRXyQpKsIEe39eC-38" value="◀ provides data" style="text;html=1;strokeColor=none;fillColor=none;align=center;verticalAlign=middle;whiteSpace=wrap;rounded=0;rotation=0;" vertex="1" parent="1">
          <mxGeometry x="701" y="497.5" width="130" height="20" as="geometry" />
        </mxCell>
        <mxCell id="m3o6kBRXyQpKsIEe39eC-39" value="" style="group" vertex="1" connectable="0" parent="1">
          <mxGeometry x="560" y="450" width="155" height="115" as="geometry" />
        </mxCell>
        <mxCell id="m3o6kBRXyQpKsIEe39eC-40" value="" style="group" vertex="1" connectable="0" parent="m3o6kBRXyQpKsIEe39eC-39">
          <mxGeometry width="155" height="75" as="geometry" />
        </mxCell>
        <mxCell id="m3o6kBRXyQpKsIEe39eC-41" value="&amp;lt;&amp;lt;entity&amp;gt;&amp;gt;&lt;br&gt;Page Maker" style="rounded=0;whiteSpace=wrap;html=1;" vertex="1" parent="m3o6kBRXyQpKsIEe39eC-40">
          <mxGeometry x="15" y="15" width="140" height="60" as="geometry" />
        </mxCell>
        <mxCell id="m3o6kBRXyQpKsIEe39eC-42" value="" style="verticalLabelPosition=bottom;verticalAlign=top;html=1;shape=mxgraph.basic.smiley" vertex="1" parent="m3o6kBRXyQpKsIEe39eC-40">
          <mxGeometry width="30" height="30" as="geometry" />
        </mxCell>
        <mxCell id="m3o6kBRXyQpKsIEe39eC-43" value="&amp;nbsp;searchParams&lt;br&gt;&amp;nbsp;requestResults" style="rounded=0;whiteSpace=wrap;html=1;align=left;" vertex="1" parent="m3o6kBRXyQpKsIEe39eC-39">
          <mxGeometry x="15" y="75" width="140" height="40" as="geometry" />
        </mxCell>
        <mxCell id="m3o6kBRXyQpKsIEe39eC-44" value="" style="group" vertex="1" connectable="0" parent="1">
          <mxGeometry x="715" y="316" width="155" height="76" as="geometry" />
        </mxCell>
        <mxCell id="m3o6kBRXyQpKsIEe39eC-45" value="&amp;lt;&amp;lt;boundary&amp;gt;&amp;gt;&lt;br&gt;Database Connection" style="rounded=0;whiteSpace=wrap;html=1;" vertex="1" parent="m3o6kBRXyQpKsIEe39eC-44">
          <mxGeometry x="15" y="16" width="140" height="60" as="geometry" />
        </mxCell>
        <mxCell id="m3o6kBRXyQpKsIEe39eC-46" value="" style="verticalLabelPosition=bottom;verticalAlign=top;html=1;shape=mxgraph.basic.smiley" vertex="1" parent="m3o6kBRXyQpKsIEe39eC-44">
          <mxGeometry width="30" height="30" as="geometry" />
        </mxCell>
        <mxCell id="m3o6kBRXyQpKsIEe39eC-47" style="edgeStyle=orthogonalEdgeStyle;rounded=0;orthogonalLoop=1;jettySize=auto;html=1;exitX=1;exitY=0.75;exitDx=0;exitDy=0;endArrow=none;endFill=0;" edge="1" parent="1" source="m3o6kBRXyQpKsIEe39eC-25">
          <mxGeometry relative="1" as="geometry">
            <mxPoint x="575" y="505" as="targetPoint" />
            <Array as="points">
              <mxPoint x="575" y="505" />
            </Array>
          </mxGeometry>
        </mxCell>
        <mxCell id="m3o6kBRXyQpKsIEe39eC-48" style="edgeStyle=orthogonalEdgeStyle;rounded=0;orthogonalLoop=1;jettySize=auto;html=1;exitX=0.5;exitY=1;exitDx=0;exitDy=0;entryX=1;entryY=0.5;entryDx=0;entryDy=0;endArrow=none;endFill=0;" edge="1" parent="1" source="m3o6kBRXyQpKsIEe39eC-45" target="m3o6kBRXyQpKsIEe39eC-41">
          <mxGeometry relative="1" as="geometry" />
        </mxCell>
        <mxCell id="m3o6kBRXyQpKsIEe39eC-49" style="edgeStyle=orthogonalEdgeStyle;rounded=0;orthogonalLoop=1;jettySize=auto;html=1;exitX=1;exitY=0.5;exitDx=0;exitDy=0;endArrow=none;endFill=0;" edge="1" parent="1" source="m3o6kBRXyQpKsIEe39eC-45">
          <mxGeometry relative="1" as="geometry">
            <mxPoint x="980" y="362" as="targetPoint" />
          </mxGeometry>
        </mxCell>
        <mxCell id="m3o6kBRXyQpKsIEe39eC-50" value="" style="group" vertex="1" connectable="0" parent="1">
          <mxGeometry x="200" y="160" width="150" height="110" as="geometry" />
        </mxCell>
        <mxCell id="m3o6kBRXyQpKsIEe39eC-51" value="" style="group" vertex="1" connectable="0" parent="m3o6kBRXyQpKsIEe39eC-50">
          <mxGeometry x="10" y="20" width="140" height="90" as="geometry" />
        </mxCell>
        <mxCell id="m3o6kBRXyQpKsIEe39eC-52" value="&amp;lt;&amp;lt;boundary&amp;gt;&amp;gt;&lt;br&gt;Delete Request" style="rounded=0;whiteSpace=wrap;html=1;" vertex="1" parent="m3o6kBRXyQpKsIEe39eC-51">
          <mxGeometry width="140" height="60" as="geometry" />
        </mxCell>
        <mxCell id="m3o6kBRXyQpKsIEe39eC-53" value="&amp;nbsp;removalParams" style="rounded=0;whiteSpace=wrap;html=1;align=left;" vertex="1" parent="m3o6kBRXyQpKsIEe39eC-51">
          <mxGeometry y="60" width="140" height="30" as="geometry" />
        </mxCell>
        <mxCell id="m3o6kBRXyQpKsIEe39eC-54" value="" style="group" vertex="1" connectable="0" parent="m3o6kBRXyQpKsIEe39eC-50">
          <mxGeometry width="30" height="40" as="geometry" />
        </mxCell>
        <mxCell id="m3o6kBRXyQpKsIEe39eC-55" value="" style="whiteSpace=wrap;html=1;shape=mxgraph.basic.document" vertex="1" parent="m3o6kBRXyQpKsIEe39eC-54">
          <mxGeometry width="30" height="40" as="geometry" />
        </mxCell>
        <mxCell id="m3o6kBRXyQpKsIEe39eC-56" value="" style="endArrow=none;html=1;" edge="1" parent="m3o6kBRXyQpKsIEe39eC-54">
          <mxGeometry width="50" height="50" relative="1" as="geometry">
            <mxPoint x="5" y="9" as="sourcePoint" />
            <mxPoint x="25" y="9" as="targetPoint" />
          </mxGeometry>
        </mxCell>
        <mxCell id="m3o6kBRXyQpKsIEe39eC-57" value="" style="endArrow=none;html=1;" edge="1" parent="m3o6kBRXyQpKsIEe39eC-54">
          <mxGeometry width="50" height="50" relative="1" as="geometry">
            <mxPoint x="5" y="15" as="sourcePoint" />
            <mxPoint x="25" y="15" as="targetPoint" />
          </mxGeometry>
        </mxCell>
        <mxCell id="m3o6kBRXyQpKsIEe39eC-58" value="" style="endArrow=none;html=1;" edge="1" parent="m3o6kBRXyQpKsIEe39eC-54">
          <mxGeometry width="50" height="50" relative="1" as="geometry">
            <mxPoint x="5" y="21" as="sourcePoint" />
            <mxPoint x="25" y="21" as="targetPoint" />
          </mxGeometry>
        </mxCell>
        <mxCell id="m3o6kBRXyQpKsIEe39eC-59" value="" style="endArrow=none;html=1;" edge="1" parent="m3o6kBRXyQpKsIEe39eC-54">
          <mxGeometry width="50" height="50" relative="1" as="geometry">
            <mxPoint x="5" y="27" as="sourcePoint" />
            <mxPoint x="25" y="27" as="targetPoint" />
          </mxGeometry>
        </mxCell>
        <mxCell id="m3o6kBRXyQpKsIEe39eC-60" value="" style="endArrow=none;html=1;" edge="1" parent="m3o6kBRXyQpKsIEe39eC-54">
          <mxGeometry width="50" height="50" relative="1" as="geometry">
            <mxPoint x="5" y="33" as="sourcePoint" />
            <mxPoint x="25" y="33" as="targetPoint" />
          </mxGeometry>
        </mxCell>
        <mxCell id="m3o6kBRXyQpKsIEe39eC-61" style="edgeStyle=orthogonalEdgeStyle;rounded=0;orthogonalLoop=1;jettySize=auto;html=1;endArrow=none;endFill=0;" edge="1" parent="1">
          <mxGeometry relative="1" as="geometry">
            <mxPoint x="140" y="360" as="targetPoint" />
            <mxPoint x="210" y="360" as="sourcePoint" />
            <Array as="points">
              <mxPoint x="210" y="360" />
              <mxPoint x="140" y="360" />
            </Array>
          </mxGeometry>
        </mxCell>
        <mxCell id="m3o6kBRXyQpKsIEe39eC-62" style="edgeStyle=orthogonalEdgeStyle;rounded=0;orthogonalLoop=1;jettySize=auto;html=1;exitX=0;exitY=0.75;exitDx=0;exitDy=0;endArrow=none;endFill=0;" edge="1" parent="1" source="m3o6kBRXyQpKsIEe39eC-52">
          <mxGeometry relative="1" as="geometry">
            <mxPoint x="140" y="340" as="targetPoint" />
            <Array as="points">
              <mxPoint x="170" y="225" />
              <mxPoint x="170" y="340" />
            </Array>
          </mxGeometry>
        </mxCell>
        <mxCell id="m3o6kBRXyQpKsIEe39eC-63" style="edgeStyle=orthogonalEdgeStyle;rounded=0;orthogonalLoop=1;jettySize=auto;html=1;exitX=1;exitY=0.75;exitDx=0;exitDy=0;entryX=0;entryY=0.75;entryDx=0;entryDy=0;endArrow=none;endFill=0;" edge="1" parent="1" source="m3o6kBRXyQpKsIEe39eC-52" target="m3o6kBRXyQpKsIEe39eC-34">
          <mxGeometry relative="1" as="geometry" />
        </mxCell>
        <mxCell id="m3o6kBRXyQpKsIEe39eC-64" value="receives ▶" style="text;html=1;strokeColor=none;fillColor=none;align=center;verticalAlign=middle;whiteSpace=wrap;rounded=0;" vertex="1" parent="1">
          <mxGeometry x="353" y="205" width="66" height="20" as="geometry" />
        </mxCell>
      </root>
    </mxGraphModel>
  </diagram>
</mxfile>
